<svg xmlns="http://www.w3.org/2000/svg">
    
    <symbol id="icon_skill_js_60" viewBox="0 0 60 60">
        <rect x="7" y="7" width="46" height="46" rx="4" style="fill:#fff;stroke:rgb(var(--accent-color));stroke-linecap:round;stroke-linejoin:round;stroke-width:4px"/><path d="M45.41687,30.04592l-2.95074,1.92583a2.81484,2.81484,0,0,0-2.45978-1.65239,1.65362,1.65362,0,0,0-1.83423,1.684c0,.61918.41787,1.383,1.73859,1.98328,1.42966.64985,2.40077,1.03706,3.59942,1.68691a5.32565,5.32565,0,0,1,3.06393,5.19917c0,3.44786-3.08128,5.172-5.85712,5.172-2.58512,0-5.56536-.38837-7.47171-3.9122l3.11638-1.79817a4.42678,4.42678,0,0,0,3.71821,2.309c2.11712.0191,2.6503-1.1379,2.6503-2.077,0-1.045-.91692-1.64313-3.53483-2.66554-2.57432-1.00562-4.79248-2.46807-4.79248-5.85287,0-3.84027,3.32985-5.10873,5.64693-5.10873A5.75012,5.75012,0,0,1,45.41687,30.04592Z" style="fill-rule:evenodd"/><path d="M30.88563,27.01707H27.06521V40.82353a1.86256,1.86256,0,0,1-1.76056,1.94067c-1.91059.2368-2.77642-1.94067-2.77642-1.94067l-3.104,1.91021A5.54939,5.54939,0,0,0,23.00588,45.838a6.60709,6.60709,0,0,0,6.44719-1.194,5.68671,5.68671,0,0,0,1.43256-3.82041C30.87984,40.83375,30.88563,27.01707,30.88563,27.01707Z" style="fill-rule:evenodd"/>
    </symbol>

    <symbol id="icon_skill_js_40" viewBox="0 0 40 40">
        <rect x="4.5" y="4.5" width="31" height="31" rx="3" style="fill:#fff;stroke:rgb(var(--accent-color));stroke-linecap:round;stroke-linejoin:round;stroke-width:3px"/><path d="M30.38963,20.12064l-1.98854,1.29784a1.897,1.897,0,0,0-1.65768-1.11357,1.11439,1.11439,0,0,0-1.23611,1.13488c0,.41728.28161.932,1.17165,1.33657.96347.43794,1.61792.69888,2.4257,1.13682A3.589,3.589,0,0,1,31.16947,27.417c0,2.32356-2.07651,3.48547-3.94718,3.48547-1.74215,0-3.75057-.26173-5.03529-2.63649l2.10017-1.21181a2.98326,2.98326,0,0,0,2.50575,1.55606c1.42676.01286,1.78607-.76685,1.78607-1.39972,0-.70422-.61792-1.10733-2.38216-1.79634-1.73487-.67771-3.22972-1.66327-3.22972-3.94433,0-2.588,2.244-3.44284,3.80554-3.44284A3.87507,3.87507,0,0,1,30.38963,20.12064Z" style="fill-rule:evenodd"/><path d="M20.68107,18.03734H18.10645v9.17233A1.25521,1.25521,0,0,1,16.92,28.51751c-1.28757.15959-1.87106-1.30784-1.87106-1.30784L12.95707,28.497a3.73976,3.73976,0,0,0,2.41374,2.092,4.45258,4.45258,0,0,0,4.34484-.80467,3.83226,3.83226,0,0,0,.96542-2.57462C20.67718,27.21656,20.68107,18.03734,20.68107,18.03734Z" style="fill-rule:evenodd"/>
    </symbol>

    <symbol id="icon_skill_figma_60" viewBox="0 0 60 60">
        <rect x="7" y="7" width="46" height="46" rx="1.48387" style="fill:#fff;stroke:rgb(var(--accent-color));stroke-linecap:round;stroke-linejoin:round;stroke-width:4px"/><path d="M30.5,15.5h5a5,5,0,0,1,5,5v0a5,5,0,0,1-5,5h-5a0,0,0,0,1,0,0v-10a0,0,0,0,1,0,0Z" style="fill:none;stroke:#f2665b;stroke-linecap:round;stroke-linejoin:round;stroke-width:3.000000000404088px"/><path d="M25.5,15.5h5a0,0,0,0,1,0,0v10a0,0,0,0,1,0,0h-5a5,5,0,0,1-5-5v0A5,5,0,0,1,25.5,15.5Z" style="fill:none;stroke:#ed3c23;stroke-linecap:round;stroke-linejoin:round;stroke-width:3px"/><path d="M25.5,35.5h5a0,0,0,0,1,0,0v5a5,5,0,0,1-5,5h0a5,5,0,0,1-5-5v0A5,5,0,0,1,25.5,35.5Z" style="fill:none;stroke:#4eba76;stroke-linecap:round;stroke-linejoin:round;stroke-width:3.000000000404088px"/><path d="M25.5,25.5h5a0,0,0,0,1,0,0v10a0,0,0,0,1,0,0h-5a5,5,0,0,1-5-5v0A5,5,0,0,1,25.5,25.5Z" style="fill:none;stroke:#855ba6;stroke-linecap:round;stroke-linejoin:round;stroke-width:3.000000000404088px"/><path d="M30.5,30.49983A4.99986,4.99986,0,0,1,35.49966,25.5h.00068A4.99986,4.99986,0,0,1,40.5,30.49983v.00051A4.99957,4.99957,0,0,1,35.50034,35.5h-.00068A4.99957,4.99957,0,0,1,30.5,30.50034Z" style="fill:none;stroke:#3cb4e7;stroke-linecap:round;stroke-linejoin:round;stroke-width:2.8571427703033274px"/>
    </symbol>

    <symbol id="icon_skill_figma_40" viewBox="0 0 40 40">
        <rect x="4.5" y="4.5" width="31" height="31" rx="1" style="fill:#fff;stroke:rgb(var(--accent-color));stroke-linecap:round;stroke-linejoin:round;stroke-width:3px"/><path d="M20,23.99762H16.49976A3.49971,3.49971,0,0,0,13,27.49738v.00048a3.49971,3.49971,0,0,0,3.49976,3.49976h.00048A3.49971,3.49971,0,0,0,20,27.49786Z" style="fill:none;stroke:#4eba76;stroke-linecap:round;stroke-linejoin:round;stroke-width:2px"/><path d="M20,10h3.50024A3.49991,3.49991,0,0,1,27,13.49988v.00036A3.49971,3.49971,0,0,1,23.50024,17H20Z" style="fill:none;stroke:#f2665b;stroke-linecap:round;stroke-linejoin:round;stroke-width:2px"/><path d="M20,10H16.49976A3.49991,3.49991,0,0,0,13,13.49988v.00036A3.49971,3.49971,0,0,0,16.49976,17H20Z" style="fill:none;stroke:#ed3c23;stroke-linecap:round;stroke-linejoin:round;stroke-width:2px"/><path d="M20,16.99762H16.49976A3.49971,3.49971,0,0,0,13,20.49738v.00048a3.49971,3.49971,0,0,0,3.49976,3.49976H20Z" style="fill:none;stroke:#855ba6;stroke-linecap:round;stroke-linejoin:round;stroke-width:2px"/><path d="M20,20.49988A3.49991,3.49991,0,0,1,23.49976,17h.00048A3.49991,3.49991,0,0,1,27,20.49988v.00036A3.49971,3.49971,0,0,1,23.50024,24h-.00048A3.49971,3.49971,0,0,1,20,20.50024Z" style="fill:none;stroke:#3cb4e7;stroke-linecap:round;stroke-linejoin:round;stroke-width:2px"/>
    </symbol>

    <symbol id="icon_skill_sketch_60" viewBox="0 0 60 60">
        <path d="M6.369,24.37263,15.73353,8.453a1,1,0,0,1,.79069-.49043l13.40451-.95747a.99961.99961,0,0,1,.1425,0l13.40455.95747a1,1,0,0,1,.79069.49043L53.631,24.37263a1,1,0,0,1-.11453,1.17138l-22.769,25.61515a1,1,0,0,1-1.49482,0L6.48357,25.544A1,1,0,0,1,6.369,24.37263Z" style="fill:#fff;stroke:rgb(var(--accent-color));stroke-linecap:round;stroke-linejoin:round;stroke-width:4px"/><line x1="17.5" y1="24.5" x2="26.5" y2="39.5" style="fill:none;stroke:#ff9d44;stroke-linecap:round;stroke-miterlimit:10;stroke-width:3px"/><line x1="17.5" y1="24.5" x2="29.5" y2="12.5" style="fill:none;stroke:#fde47a;stroke-linecap:round;stroke-miterlimit:10;stroke-width:3px"/><line x1="17.5" y1="24.5" x2="18.5" y2="14.5" style="fill:none;stroke:#fde47a;stroke-linecap:round;stroke-miterlimit:10;stroke-width:3px"/><line x1="30.5" y1="12.5" x2="42.5" y2="24.5" style="fill:none;stroke:#facf32;stroke-linecap:round;stroke-miterlimit:10;stroke-width:3px"/><line x1="41.5" y1="14.5" x2="42.5" y2="24.5" style="fill:none;stroke:#facf32;stroke-linecap:round;stroke-miterlimit:10;stroke-width:3px"/><line x1="42.5" y1="24.5" x2="33.5" y2="39.5" style="fill:none;stroke:#e96c23;stroke-linecap:round;stroke-miterlimit:10;stroke-width:3px"/><line x1="12.5" y1="24.5" x2="30.5" y2="24.5" style="fill:none;stroke:#ffb700;stroke-linecap:round;stroke-miterlimit:10;stroke-width:3px"/><line x1="29.5" y1="24.5" x2="47.5" y2="24.5" style="fill:none;stroke:#ff8900;stroke-linecap:round;stroke-miterlimit:10;stroke-width:3px"/>
    </symbol>

    <symbol id="icon_skill_zeplin_60" viewBox="0 0 60 60">
        <polyline points="20.07 44.575 9.668 48.571 10.787 38.428 3.181 31.585 13.584 27.589" style="fill:#fff;stroke:rgb(var(--accent-color));stroke-linecap:round;stroke-linejoin:round;stroke-width:4px"/><path d="M56.12164,21.076c-2.118-5.54634-8.45126-8.65612-16.0195-8.61412-2.34447-4.75985-5.294-7.61059-8.194-7.2851-1.90666.214-3.526,1.78451-4.76688,4.28823-2.585-1.06132-4.838-1.172-6.41144-.07407-2.4265,1.69325-2.73889,5.87079-1.28948,11.09455-5.50106,4.98368-8.05274,11.40975-5.96555,16.87571,2.07584,5.43624,8.2066,8.51935,15.57547,8.60055,2.35653,4.85392,5.33925,7.76784,8.27083,7.43884,1.90666-.214,3.526-1.78451,4.767-4.28823,2.58491,1.06133,4.83789,1.172,6.41133.07407C50.90068,47.511,51.22887,43.40121,49.8314,38.254,55.56307,33.23074,58.25071,26.65151,56.12164,21.076Z" style="fill:#fff;stroke:rgb(var(--accent-color));stroke-linecap:round;stroke-linejoin:round;stroke-width:4px"/><path d="M40.92782,19.10509s-19.27635.34918-22.0296,16.08414" style="fill:none;stroke:#fce47b;stroke-linecap:round;stroke-linejoin:round;stroke-width:3px"/><path d="M45.89181,32.319S32.219,44.962,18.89822,35.18923" style="fill:none;stroke:#ffb700;stroke-linecap:round;stroke-linejoin:round;stroke-width:3px"/><line x1="18.89822" y1="35.18923" x2="49.56941" y2="23.68753" style="fill:none;stroke:#fccf30;stroke-linecap:round;stroke-linejoin:round;stroke-width:3px"/><path d="M44.67856,40.50032c.28738,1.64719.16812,2.92616-.61,3.33219-2.57077,1.34139-7.8294-3.863-13.37376-11.80841a45.54033,45.54033,0,0,1-6.367-12.25627A18.55854,18.55854,0,0,1,23.967,17.388" style="fill:none;stroke:#ff8900;stroke-linecap:round;stroke-linejoin:round;stroke-width:3px"/><path d="M34.70256,14.067c-.86306-1.39761-1.767-2.15117-2.62984-2.05431-2.62342.29446-3.2889,8.18105-2.20817,17.80922a45.54024,45.54024,0,0,0,3.30868,13.40923A9.51087,9.51087,0,0,0,34.281,44.83045" style="fill:none;stroke:#e96c23;stroke-linecap:round;stroke-linejoin:round;stroke-width:3px"/>
    </symbol>

    <symbol id="icon_skill_marvel_60" viewBox="0 0 60 60">
        <rect x="7" y="7" width="46" height="46" rx="10" style="fill:#fff;stroke:rgb(var(--accent-color));stroke-linecap:round;stroke-linejoin:round;stroke-width:4px"/><path d="M22.4526,20.03933a63.58679,63.58679,0,0,0-8.99427,20.38993s6.83508-13.426,17.14216-19.46912a87.80132,87.80132,0,0,0-7.17015,17.7624s9.37008-13.68845,18.1698-17.43648c0,0-5.948,7.41458-7.822,12.22183s.163,7.69976,4.074,5.54057C42.16582,36.66693,46,29.80039,46,29.80039" style="fill:none;stroke:#329fd9;stroke-linecap:round;stroke-linejoin:round;stroke-width:3.5px;fill-rule:evenodd"/>
    </symbol>

    <symbol id="icon_skill_html_60" viewBox="0 0 60 60">
        <path d="M12.94759,48.2663l-2.87107-40.195A1,1,0,0,1,11.074,7H48.926a1,1,0,0,1,.99746,1.07125L47.05241,48.2663a1,1,0,0,1-.76842.90217L30.229,52.94611a1.00011,1.00011,0,0,1-.45808,0L13.716,49.16847A1,1,0,0,1,12.94759,48.2663Z" style="fill:#fff;stroke:rgb(var(--accent-color));stroke-linecap:round;stroke-linejoin:round;stroke-width:4px"/><polygon points="23.5 25 23.182 20 43.066 20 43.538 14 16.462 14 17.803 31 36 31 35.541 38.615 30 40 24.238 38.56 24 36 18.199 36 18.75 43 30 46 41.25 43 42.671 25 23.5 25" style="fill:#f05f25"/>
    </symbol>

    <symbol id="icon_skill_html_40" viewBox="0 0 40 40">
        <path d="M8.4489,31.78466,6.57652,5.57125A1,1,0,0,1,7.574,4.5H32.426a1,1,0,0,1,.99746,1.07125L31.5511,31.78466a1,1,0,0,1-.745.89637L20.25242,35.43415a.99992.99992,0,0,1-.50484,0L9.19394,32.681A1,1,0,0,1,8.4489,31.78466Z" style="fill:#fff;stroke:rgb(var(--accent-color));stroke-linecap:round;stroke-linejoin:round;stroke-width:3px"/><polygon points="15.667 16 15.476 13 28.684 13 29 9 11 9 11.868 20 24 20 23.694 25.076 20 26 16.159 25.04 16 23 12.105 23 12.5 28 20 30 27.5 28 28.447 16 15.667 16" style="fill:#f05f25"/>
    </symbol>

    <symbol id="icon_skill_css_60" viewBox="0 0 60 60">
        <path d="M12.94759,48.2663l-2.87107-40.195A1,1,0,0,1,11.074,7H48.926a1,1,0,0,1,.99746,1.07125L47.05241,48.2663a1,1,0,0,1-.76842.90217L30.229,52.94611a1.00011,1.00011,0,0,1-.45808,0L13.716,49.16847A1,1,0,0,1,12.94759,48.2663Z" style="fill:#fff;stroke:rgb(var(--accent-color));stroke-linecap:round;stroke-linejoin:round;stroke-width:4px"/><polygon points="30.375 25 43.069 20 43.539 14 16.461 14 16.931 20 28.45 20 17.251 24.011 17.803 31 36 31 35.541 38.615 30 40 24.238 38.56 24.043 36 18.196 36 18.75 43 30 46 41.25 43 42.671 25 30.375 25" style="fill:#329fd9"/>
    </symbol>

    <symbol id="icon_skill_css_40" viewBox="0 0 40 40">
        <path d="M8.4489,31.78466,6.57652,5.57125A1,1,0,0,1,7.574,4.5H32.426a1,1,0,0,1,.99746,1.07125L31.5511,31.78466a1,1,0,0,1-.745.89637L20.25242,35.43415a.99992.99992,0,0,1-.50484,0L9.19394,32.681A1,1,0,0,1,8.4489,31.78466Z" style="fill:#fff;stroke:rgb(var(--accent-color));stroke-linecap:round;stroke-linejoin:round;stroke-width:3px"/><polygon points="21 16 28.675 13.122 29 9 11 9 11.316 13 18 13 11.508 15.435 11.868 20 24 20 23.694 25.076 20 26 16.159 25.04 16 23 12.105 23 12.5 28 20 30 27.5 28 28.447 16 21 16" style="fill:#329fd9"/>
    </symbol>

    <symbol id="icon_skill_uxlx_60" viewBox="0 0 60 60">
        <rect x="7" y="7" width="46" height="46" rx="1.48387" style="fill:#fff;stroke:rgb(var(--accent-color));stroke-linecap:round;stroke-linejoin:round;stroke-width:4px"/><rect x="13" y="13" width="5" height="5" style="fill:#646dc3"/><rect x="18" y="23.00003" width="5" height="5" style="fill:#3167ae"/><polygon points="18 23 13 23 18 28 18 23" style="fill:#283f8e;fill-rule:evenodd"/><rect x="23" y="23" width="5" height="5" style="fill:#6696c8"/><rect x="23" y="18" width="5" height="5" style="fill:#32b7ba"/><rect x="23" y="13" width="5" height="5" style="fill:#0b9798"/><rect x="13" y="18" width="5" height="5" style="fill:#514bbc"/><rect x="13" y="37" width="5" height="5" style="fill:#f8971f"/><rect x="13" y="31.99997" width="5" height="5" style="fill:#ffcd05"/><rect x="18" y="42" width="5" height="5" style="fill:#ec3b25"/><polygon points="18 42 13 42 18 47 18 42" style="fill:#f06823;fill-rule:evenodd"/><polygon points="23 47 28 47 23 42 23 47" style="fill:#cb2027;fill-rule:evenodd"/><rect x="31.99998" y="13" width="5" height="5" style="fill:#7bc383"/><rect x="31.99998" y="23.00008" width="5" height="5" style="fill:#369746"/><rect x="42" y="23.00008" width="5" height="5" style="fill:#c8c82d"/><rect x="37" y="18" width="5" height="5" style="fill:#98c73d"/><rect x="42" y="13" width="5" height="5" style="fill:#ffcd05"/><rect x="31.99998" y="31.99998" width="5" height="5" style="fill:#cb2034"/><rect x="31.99998" y="42" width="5" height="5" style="fill:#991e20"/><rect x="42" y="42" width="5" height="5" style="fill:#f49499"/><rect x="37" y="37" width="5" height="5" style="fill:#ca6365"/><rect x="42" y="31.99998" width="5" height="5" style="fill:#f06566"/>
    </symbol>

    <symbol id="icon_skill_ai_60" viewBox="0 0 60 60">
        <rect x="7" y="7" width="46" height="46" rx="10" style="fill:#fff;stroke:rgb(var(--accent-color));stroke-linecap:round;stroke-linejoin:round;stroke-width:4px"/><path d="M41.99842,24.47886A.47879.47879,0,0,0,41.51956,24H37.47865A.47849.47849,0,0,0,37,24.47886V39.5182a.4785.4785,0,0,0,.47867.47886h4.04091c.127,0-.23843-.05035-.14864-.14015s.6275-.21171.6275-.33871Z" style="fill:#fdb614;fill-rule:evenodd"/><circle cx="39.49998" cy="19.5" r="2.5" style="fill:#fdb614"/><path d="M27.34463,31l-.37516-1.17018-2.17805-7.17814L22.70016,29.821,22.33891,31Zm-6.23288,4h7.5196l1.54583,4.81567a.26373.26373,0,0,0,.25117.18316H34.612a.26376.26376,0,0,0,.24891-.35148c-.91187-2.58609-6.56308-18.61356-7.21909-20.47413A.2612.2612,0,0,0,27.39291,19H22.30152a.26123.26123,0,0,0-.26375.25926c-.00169.27484-.00414.69189-.00526.87787a.57774.57774,0,0,1-.03213.18542c-.46063,1.3214-5.853,16.78962-6.737,19.32555a.26379.26379,0,0,0,.2491.35073H19.3818a.264.264,0,0,0,.2523-.18654Z" style="fill:#fdb614;fill-rule:evenodd"/>
    </symbol>

    <symbol id="icon_skill_ai_40" viewBox="0 0 40 40">
        <rect x="4.5" y="4.5" width="31" height="31" rx="7" style="fill:#fff;stroke:rgb(var(--accent-color));stroke-linecap:round;stroke-linejoin:round;stroke-width:3px"/><path d="M27.99072,16.72125a.31527.31527,0,0,0-.31531-.31531h-2.34a.31506.31506,0,0,0-.31519.31531v9.8492a.31506.31506,0,0,0,.31519.31531h2.34a.31527.31527,0,0,0,.31531-.31531Z" style="fill:#fdb614;fill-rule:evenodd"/><circle cx="26.50544" cy="13.54356" r="1.63731" style="fill:#fdb614"/><path d="M18.69768,20.94923l-.247-.77054-1.43419-4.72661-1.377,4.7208-.23787.77635ZM14.58029,23.63h4.97712l1.00544,3.1352a.17366.17366,0,0,0,.16539.12061h2.75482a.17368.17368,0,0,0,.1639-.23144c-.60044-1.70287-4.32162-12.25654-4.75358-13.48168a.17378.17378,0,0,0-.16391-.116H15.37693a.1737.1737,0,0,0-.17368.17268l-.00346.57806a.38039.38039,0,0,1-.02115.12209c-.30332.87011-3.854,11.05553-4.43617,12.72537a.1737.1737,0,0,0,.164.231h2.54787a.17382.17382,0,0,0,.16613-.12283Z" style="fill:#fdb614;fill-rule:evenodd"/>
    </symbol>

    <symbol id="icon_skill_ps_60" viewBox="0 0 60 60">
        <rect x="7" y="7" width="46" height="46" rx="10" style="fill:#fff;stroke:rgb(var(--accent-color));stroke-linecap:round;stroke-linejoin:round;stroke-width:4px"/><path d="M20.99176,22.77664v6.58245h1.57283a10.37731,10.37731,0,0,0,2.57755-.40418,2.95563,2.95563,0,0,0,2.06569-3.21553,2.90412,2.90412,0,0,0-2.05942-2.71013,8.67651,8.67651,0,0,0-2.65961-.27787ZM17,39.72027a.27687.27687,0,0,0,.08316.19379.274.274,0,0,0,.1938.08021h3.44283a.27391.27391,0,0,0,.19379-.08021A.281.281,0,0,0,21,39.72027V33s4.18676.229,6.23991-.63171A6.44433,6.44433,0,0,0,31.4882,25.9564a6.47553,6.47553,0,0,0-4.29254-6.32264c-2.04154-.7582-3.80926-.66029-6.32818-.66029-1.93957.04277-3.05488.06785-3.59532.07744a.27656.27656,0,0,0-.27216.274Z" style="fill:#329fd9;fill-rule:evenodd"/><path d="M43.6081,28.58857a.2596.2596,0,0,0,.38187-.22919c.00166-.85224.00166-2.714.00166-3.28062a.2616.2616,0,0,0-.147-.23547,9.48922,9.48922,0,0,0-4.32905-1.05723c-2.71639.05532-4.30132.6826-5.46517,1.96336a4.46813,4.46813,0,0,0-.3933,5.2023c1.06705,1.60823,3.04331,2.2995,4.40944,2.868,1.36612.56866,2.013.91844,2.013,1.58186,0,.66324-.98095,1.351-3.64866.90092a8.84817,8.84817,0,0,1-3.01658-1.02907.25865.25865,0,0,0-.40657.212c-.00277.90147-.00277,2.79236-.00277,3.35862a.26086.26086,0,0,0,.14419.2338,11.30242,11.30242,0,0,0,4.75443.914c2.74774-.0555,4.14687-.6968,5.25891-1.84a4.55859,4.55859,0,0,0,.28193-5.72542c-1.20682-1.45942-2.972-1.99857-4.47434-2.58677-1.26969-.49711-1.85052-.87916-1.85052-1.58075,0-.93171,1.5582-1.10172,3.42125-.8893A9.3026,9.3026,0,0,1,43.6081,28.58857Z" style="fill:#329fd9;fill-rule:evenodd"/>
    </symbol>

    <symbol id="icon_btn_close_35" viewBox="0 0 35 35">
        <path d="M18.91406,17.5l6.793-6.793A.99989.99989,0,0,0,24.293,9.293l-6.793,6.793L10.707,9.293A.99989.99989,0,0,0,9.293,10.707l6.793,6.793L9.293,24.293A.99989.99989,0,1,0,10.707,25.707l6.793-6.793,6.793,6.793A.99989.99989,0,0,0,25.707,24.293Z" style="fill:rgba(var(--main-blue), 1)"/>
    </symbol>

    <symbol id="icon_contacts_mail_40" viewBox="0 0 40 40">
        <path d="M35,10H5V26.85905A3.14062,3.14062,0,0,0,8.14,30H31.86A3.14062,3.14062,0,0,0,35,26.85905Z" style="fill:none;stroke:#fff;stroke-linecap:round;stroke-linejoin:round;stroke-width:2px"/><polyline points="9 14 20 23 31 14" style="fill:none;stroke:#fff;stroke-linecap:round;stroke-linejoin:round;stroke-width:1.9999860019024949px"/>
    </symbol>

    <symbol id="icon_contacts_in_40" viewBox="0 0 40 40">
        <rect x="6" y="6" width="28" height="28" rx="4.66667" style="fill:none;stroke:#fff;stroke-linecap:round;stroke-linejoin:round;stroke-width:2px"/><path d="M18.00052,28h3.64264s.004-4.89826.004-6.32227a1.94986,1.94986,0,0,1,2.01071-1.83389c1.45537-.01072,1.744,1.49857,1.744,2.06674V28h3.59652V21.72913s.14422-3.27645-2.243-4.32718a3.963,3.963,0,0,0-5.12245,1.35269V17.2668H18Z" style="fill:#fff;fill-rule:evenodd"/><rect x="12" y="17" width="4" height="11" style="fill:#fff"/><ellipse cx="14" cy="14" rx="2.07812" ry="1.91223" style="fill:#fff"/>
    </symbol>

    <symbol id="icon_contacts_phone_40" viewBox="0 0 40 40">
        <path d="M13.5,5h13A2.5,2.5,0,0,1,29,7.5v25A2.5,2.5,0,0,1,26.5,35h-13A2.5,2.5,0,0,1,11,32.5V7.5A2.5,2.5,0,0,1,13.5,5Z" style="fill:none;stroke:#fff;stroke-miterlimit:10;stroke-width:2px"/><circle cx="20" cy="30" r="2" style="fill:#fff"/>
    </symbol>

    <symbol id="icon_contacts_download_40" viewBox="0 0 40 40">
        <path d="M29,35H11a2,2,0,0,1-2-2V7a2,2,0,0,1,2-2H23l8,8V33A2,2,0,0,1,29,35Z" style="fill:none;stroke:#fff;stroke-miterlimit:10;stroke-width:2px;fill-rule:evenodd"/><path d="M31,13H25a2,2,0,0,1-2-2V5" style="fill:none;stroke:#fff;stroke-miterlimit:10;stroke-width:2px;fill-rule:evenodd"/><line x1="20" y1="26" x2="20" y2="16" style="fill:none;stroke:#fff;stroke-linecap:round;stroke-miterlimit:10;stroke-width:2px"/><polyline points="17 23 20 26 23 23" style="fill:none;stroke:#fff;stroke-linecap:round;stroke-linejoin:round;stroke-width:2px;fill-rule:evenodd"/>
    </symbol>

    <symbol id="corner_15" viewBox="0 0 15 15">
        <path d="M15,15H0V0A15,15,0,0,0,15,15Z" style="fill:#11a1d9"/>
    </symbol>

    <symbol id="icon_warning_25" viewBox="0 0 25 25">
        <path d="M9.88976,3.44707l-8.49,14.46452A2.71439,2.71439,0,0,0,3.74065,22h17.5187a2.71439,2.71439,0,0,0,2.34093-4.08841l-8.49-14.46452A3.02666,3.02666,0,0,0,9.88976,3.44707Z" style="fill:#fce37a;stroke:#ffd630;stroke-miterlimit:10;stroke-width:2px"/><circle cx="12.5" cy="17.5" r="1.5"/><path d="M12.93152,15h-.863a.29666.29666,0,0,1-.29519-.26715l-.624-6.2403A1.35747,1.35747,0,0,1,12.5,7h0a1.35747,1.35747,0,0,1,1.35074,1.49255l-.624,6.2403A.29666.29666,0,0,1,12.93152,15Z"/>
    </symbol>
</svg>